<?xml version="1.0" encoding="utf-8"?>
<svg version="1.1" xmlns:xlink="http://www.w3.org/1999/xlink" width="50px" height="50px" xmlns="http://www.w3.org/2000/svg">
  <g transform="matrix(1 0 0 1 -21 -17 )">
    <path d="M 37.1907552083333 21.142578125  C 37.3969184027778 21.3487413194444  37.5 21.5928819444444  37.5 21.875  L 37.5 28.125  C 37.5 28.4071180555556  37.3969184027778 28.6512586805556  37.1907552083333 28.857421875  C 36.9845920138889 29.0635850694444  36.7404513888889 29.1666666666667  36.4583333333333 29  L 25 29  L 25 35.4166666666667  C 25 35.7204861111111  24.90234375 35.9700520833333  24.70703125 36.1653645833333  C 24.51171875 36.3606770833333  24.2621527777778 36.4583333333333  23.9583333333333 36.4583333333333  C 23.6979166666667 36.4583333333333  23.4375 36.3498263888889  23.1770833333333 36.1328125  L 12.79296875 25.7486979166667  C 12.59765625 25.5533854166667  12.5 25.3038194444444  12.5 25  C 12.5 24.6961805555556  12.59765625 24.4466145833333  12.79296875 24.2513020833333  L 23.2096354166667 13.8346354166667  C 23.4049479166667 13.6393229166667  23.6545138888889 13.5416666666667  23.9583333333333 13.5416666666667  C 24.2404513888889 13.5416666666667  24.4845920138889 13.6447482638889  24.6907552083333 13.8509114583333  C 24.8969184027778 14.0570746527778  25 14.3012152777778  25 14.5833333333333  L 25 21  L 36.4583333333333 21  C 36.7404513888889 20.8333333333333  36.9845920138889 20.9364149305556  37.1907552083333 21.142578125  Z M 40.33203125 33.88671875  C 41.9162326388889 31.1740451388889  42.7083333333333 28.2118055555556  42.7083333333333 25  C 42.7083333333333 21.7881944444444  41.9162326388889 18.8259548611111  40.33203125 16.11328125  C 38.7478298611111 13.4006076388889  36.5993923611111 11.2521701388889  33.88671875 9.66796875  C 31.1740451388889 8.08376736111111  28.2118055555556 7.29166666666667  25 7.29166666666667  C 21.7881944444444 7.29166666666667  18.8259548611111 8.08376736111111  16.11328125 9.66796875  C 13.4006076388889 11.2521701388889  11.2521701388889 13.4006076388889  9.66796875 16.11328125  C 8.08376736111111 18.8259548611111  7.29166666666667 21.7881944444444  7.29166666666667 25  C 7.29166666666667 28.2118055555556  8.08376736111111 31.1740451388889  9.66796875 33.88671875  C 11.2521701388889 36.5993923611111  13.4006076388889 38.7478298611111  16.11328125 40.33203125  C 18.8259548611111 41.9162326388889  21.7881944444444 42.7083333333333  25 42.7083333333333  C 28.2118055555556 42.7083333333333  31.1740451388889 41.9162326388889  33.88671875 40.33203125  C 36.5993923611111 38.7478298611111  38.7478298611111 36.5993923611111  40.33203125 33.88671875  Z M 46.6471354166667 12.451171875  C 48.8823784722222 16.2814670138889  50 20.4644097222222  50 25  C 50 29.5355902777778  48.8823784722222 33.7185329861111  46.6471354166667 37.548828125  C 44.4118923611111 41.3791232638889  41.3791232638889 44.4118923611111  37.548828125 46.6471354166667  C 33.7185329861111 48.8823784722222  29.5355902777778 50  25 50  C 20.4644097222222 50  16.2814670138889 48.8823784722222  12.451171875 46.6471354166667  C 8.62087673611111 44.4118923611111  5.58810763888889 41.3791232638889  3.35286458333333 37.548828125  C 1.11762152777778 33.7185329861111  0 29.5355902777778  0 25  C 0 20.4644097222222  1.11762152777778 16.2814670138889  3.35286458333333 12.451171875  C 5.58810763888889 8.62087673611111  8.62087673611111 5.58810763888888  12.451171875 3.35286458333333  C 16.2814670138889 1.11762152777777  20.4644097222222 0  25 0  C 29.5355902777778 0  33.7185329861111 1.11762152777777  37.548828125 3.35286458333333  C 41.3791232638889 5.58810763888888  44.4118923611111 8.62087673611111  46.6471354166667 12.451171875  Z " fill-rule="nonzero" fill="#ffffff" stroke="none" transform="matrix(1 0 0 1 21 17 )" />
  </g>
</svg>