<?xml version="1.0" encoding="utf-8"?>
<svg version="1.1" xmlns:xlink="http://www.w3.org/1999/xlink" width="59px" height="58px" xmlns="http://www.w3.org/2000/svg">
  <g transform="matrix(1 0 0 1 -211 -732 )">
    <path d="M 58.2701822916667 0.717447916666665  C 58.7567274305556 1.19574652777777  59 1.76215277777777  59 2.41666666666666  L 59 55.5833333333333  C 59 56.2378472222222  58.7567274305556 56.8042534722222  58.2701822916667 57.2825520833333  C 57.7836371527778 57.7608506944444  57.2074652777778 58  56.5416666666667 58  L 36.875 58  C 36.2092013888889 58  35.6330295138889 57.7608506944444  35.146484375 57.2825520833333  C 34.6599392361111 56.8042534722222  34.4166666666667 56.2378472222222  34 55.5833333333333  L 34 2.41666666666666  C 34.4166666666667 1.76215277777777  34.6599392361111 1.19574652777777  35.146484375 0.717447916666665  C 35.6330295138889 0.239149305555553  36.2092013888889 0  36.875 0  L 56.5416666666667 0  C 57.2074652777778 0  57.7836371527778 0.239149305555553  58.2701822916667 0.717447916666665  Z M 23.853515625 0.717447916666665  C 24.3400607638889 1.19574652777777  24.5833333333333 1.76215277777777  25 2.41666666666666  L 25 55.5833333333333  C 24.5833333333333 56.2378472222222  24.3400607638889 56.8042534722222  23.853515625 57.2825520833333  C 23.3669704861111 57.7608506944444  22.7907986111111 58  22.125 58  L 2.45833333333333 58  C 1.79253472222222 58  1.21636284722222 57.7608506944444  0.729817708333333 57.2825520833333  C 0.243272569444444 56.8042534722222  0 56.2378472222222  0 55.5833333333333  L 0 2.41666666666666  C 0 1.76215277777777  0.243272569444444 1.19574652777777  0.729817708333333 0.717447916666665  C 1.21636284722222 0.239149305555553  1.79253472222222 0  2.45833333333333 0  L 22.125 0  C 22.7907986111111 0  23.3669704861111 0.239149305555553  23.853515625 0.717447916666665  Z " fill-rule="nonzero" fill="#ffffff" stroke="none" transform="matrix(1 0 0 1 211 732 )" />
  </g>
</svg>