<?xml version="1.0" encoding="utf-8"?>
<svg version="1.1" xmlns:xlink="http://www.w3.org/1999/xlink" width="33px" height="50px" xmlns="http://www.w3.org/2000/svg">
  <g transform="matrix(1 0 0 1 -68 -736 )">
    <path d="M 8.6689453125 23.538961038961  L 31.5498046875 0.487012987012986  C 31.9580078125 0.0757575757575735  32.3017578125 -0.0649350649350677  32.5810546875 0.0649350649350622  C 32.8603515625 0.194805194805192  33 0.541125541125537  33 1.1038961038961  L 33 48.8961038961039  C 33 49.4588744588745  32.8603515625 49.8051948051948  32.5810546875 49.9350649350649  C 32.3017578125 50.0649350649351  31.9580078125 49.9242424242424  31.5498046875 49.512987012987  L 8.6689453125 26.461038961039  C 8.4755859375 26.2662337662338  8.3359375 26.0606060606061  8.25 25.8441558441558  L 8.25 47.8571428571429  C 8.25 48.4199134199134  8.0458984375 48.9069264069264  7.6376953125 49.3181818181818  C 7.2294921875 49.7294372294372  6.74609375 49.9350649350649  6.1875 49.9350649350649  L 2.0625 49.9350649350649  C 1.50390625 49.9350649350649  1.0205078125 49.7294372294372  0.6123046875 49.3181818181818  C 0.2041015625 48.9069264069264  0 48.4199134199134  0 47.8571428571429  L 0 2.14285714285714  C 0 1.58008658008658  0.2041015625 1.09307359307359  0.6123046875 0.681818181818183  C 1.0205078125 0.270562770562766  1.50390625 0.0649350649350622  2.0625 0.0649350649350622  L 6.1875 0.0649350649350622  C 6.74609375 0.0649350649350622  7.2294921875 0.270562770562766  7.6376953125 0.681818181818183  C 8.0458984375 1.09307359307359  8.25 1.58008658008658  8.25 2.14285714285714  L 8.25 24.1558441558442  C 8.3359375 23.9393939393939  8.4755859375 23.7337662337662  8.6689453125 23.538961038961  Z " fill-rule="nonzero" fill="#ffffff" stroke="none" transform="matrix(1 0 0 1 68 736 )" />
  </g>
</svg>