<?xml version="1.0" encoding="utf-8"?>
<svg version="1.1" xmlns:xlink="http://www.w3.org/1999/xlink" width="30px" height="28px" xmlns="http://www.w3.org/2000/svg">
  <g transform="matrix(1 0 0 1 -421 -25 )">
    <path d="M 29.62890625 22.815625  C 29.8763020833333 23.0927083333333  30 23.4208333333333  30 23.8  L 30 26.6  C 30 26.9791666666667  29.8763020833333 27.3072916666667  29.62890625 27.584375  C 29.3815104166667 27.8614583333333  29.0885416666667 28  28.75 28  L 1.25 28  C 0.911458333333333 28  0.618489583333333 27.8614583333333  0.37109375 27.584375  C 0.123697916666667 27.3072916666667  0 26.9791666666667  0 26.6  L 0 23.8  C 0 23.4208333333333  0.123697916666667 23.0927083333333  0.37109375 22.815625  C 0.618489583333333 22.5385416666667  0.911458333333333 22.4  1.25 22  L 28.75 22  C 29.0885416666667 22.4  29.3815104166667 22.5385416666667  29.62890625 22.815625  Z M 29.62890625 11.615625  C 29.8763020833333 11.8927083333333  30 12.2208333333333  30 12.6  L 30 15.4  C 30 15.7791666666667  29.8763020833333 16.1072916666667  29.62890625 16.384375  C 29.3815104166667 16.6614583333333  29.0885416666667 16.8  28.75 16.8  L 1.25 16.8  C 0.911458333333333 16.8  0.618489583333333 16.6614583333333  0.37109375 16.384375  C 0.123697916666667 16.1072916666667  0 15.7791666666667  0 15.4  L 0 12.6  C 0 12.2208333333333  0.123697916666667 11.8927083333333  0.37109375 11.615625  C 0.618489583333333 11.3385416666667  0.911458333333333 11.2  1.25 11.2  L 28.75 11.2  C 29.0885416666667 11.2  29.3815104166667 11.3385416666667  29.62890625 11.615625  Z M 29.62890625 0.415625000000001  C 29.8763020833333 0.692708333333331  30 1.02083333333333  30 1.4  L 30 4.2  C 30 4.57916666666666  29.8763020833333 4.90729166666666  29.62890625 5.184375  C 29.3815104166667 5.46145833333333  29.0885416666667 5.6  28.75 6  L 1.25 6  C 0.911458333333333 5.6  0.618489583333333 5.46145833333333  0.37109375 5.184375  C 0.123697916666667 4.90729166666666  0 4.57916666666666  0 4.2  L 0 1.4  C 0 1.02083333333333  0.123697916666667 0.692708333333331  0.37109375 0.415625000000001  C 0.618489583333333 0.138541666666665  0.911458333333333 0  1.25 0  L 28.75 0  C 29.0885416666667 0  29.3815104166667 0.138541666666665  29.62890625 0.415625000000001  Z " fill-rule="nonzero" fill="#000000" stroke="none" transform="matrix(1 0 0 1 421 25 )" />
  </g>
</svg>